<svg id="Layer_1" data-name="Layer 1" xmlns="http://www.w3.org/2000/svg" viewBox="0 0 32 32">
  <defs>
    <style>
      .cls-1 {
        fill: #a1a1a1;
      }
    </style>
  </defs>
  <title>051c00f1-fc60-429b-a1f0-e67dac783a98</title>
  <path class="cls-1" d="M16,0A16,16,0,1,0,32,16,16,16,0,0,0,16,0ZM11.7,23.6H8.3V13.3h3.4ZM10,11.9h0a1.76,1.76,0,0,1-1.9-1.8A1.82,1.82,0,0,1,9.938,8.3L10,8.3a1.8,1.8,0,0,1,0,3.6ZM24,23.6H20.6V18.1c0-1.4-.5-2.3-1.7-2.3a1.93,1.93,0,0,0-1.907,1.952q0,.074.007.148v5.8H13.6V13.4H17v1.5a3.51,3.51,0,0,1,3.1-1.7c2.3,0,3.9,1.5,3.9,4.6Z"/>
</svg>
