<svg id="Layer_1" data-name="Layer 1" xmlns="http://www.w3.org/2000/svg" viewBox="0 0 74.58 55.94">
  <defs>
    <style>
      .cls-1 {
        fill: #a1a1a1;
      }
    </style>
  </defs>
  <title>9ea2a889-ba8c-4db7-83bf-615985499069</title>
  <path class="cls-1" d="M65.26,0H9.32A9.33,9.33,0,0,0,0,9.33V46.62a9.32,9.32,0,0,0,9.32,9.32H65.26a9.32,9.32,0,0,0,9.32-9.32h0V9.33A9.33,9.33,0,0,0,65.26,0ZM49.91,24.88,69.65,7.97a4.692,4.692,0,0,1,.27,1.36V46.62a4,4,0,0,1-.19.91ZM65.26,4.66a4.2,4.2,0,0,1,.87.18L37.29,29.56,8.45,4.84a4.2,4.2,0,0,1,.87-.18ZM4.84,47.53a4.73,4.73,0,0,1-.18-.91V9.33a4.39,4.39,0,0,1,.28-1.36L24.66,24.88Zm4.48,3.75a4.561,4.561,0,0,1-1.33-.27L28.2,27.91l7.57,6.49a2.34,2.34,0,0,0,3,0l7.57-6.49,20.21,23.1a4.561,4.561,0,0,1-1.33.27Z"/>
</svg>
